<svg xmlns:xlink="http://www.w3.org/1999/xlink" xmlns="http://www.w3.org/2000/svg" class="branding__logo" viewBox="0 0 96 24" fill="#fff" width="100"  height="25" > <path d="M92.137 2.762c.422 0 .8-.032.8-.534 0-.411-.374-.486-.72-.486h-.671v1.02h.591zm-.591 1.837h-.494V1.32H92.3c.773 0 1.155.293 1.155.934 0 .592-.37.842-.848.9l.926 1.444h-.55l-.868-1.421h-.57v1.42zm.598.725c1.281 0 2.295-1.007 2.295-2.378 0-1.332-1.013-2.347-2.295-2.347-1.293 0-2.309 1.015-2.309 2.347 0 1.371 1.016 2.378 2.31 2.378zm-2.882-2.378c0-1.625 1.32-2.817 2.882-2.817 1.555 0 2.872 1.192 2.872 2.817 0 1.653-1.317 2.852-2.872 2.852-1.561 0-2.882-1.2-2.882-2.852zm-68.937 14.38H17.28V6.752l-3.116 10.432h-3.041L8.003 6.75v10.576H4.959V3.993h4.924l2.76 10.51 2.751-10.51h4.931v13.334zM23.879.18h-7.362c-.403 0-.852.303-1.164.717-.69.903-1.898 2.358-2.596 2.39-.78.034-2.391-1.826-3.086-2.682C9.461.344 9.038.18 8.557.18H1.325C.595.18 0 .776 0 1.504V22.56c0 .728.595 1.321 1.325 1.321h6.69c.728 0 1.315-.593 1.315-1.321v-3.89c0-.73.425-.9.938-.386l1.397 1.398a1.33 1.33 0 001.872 0l1.394-1.398c.519-.515.942-.344.942.388v3.888c0 .728.592 1.321 1.317 1.321h6.69c.732 0 1.323-.593 1.323-1.321V1.504c0-.728-.591-1.324-1.324-1.324zm31.694 19.982h-8.548v-.67h.788c.586 0 1.443-.217 1.443-1.515V5.149c0-1.3-.857-1.52-1.443-1.52h-.788v-.663h13.39V7.83h-.69c-.128-3.611-3.244-3.762-5.136-3.762h-1.55v13.908c0 1.298.86 1.514 1.455 1.514h1.079v.67zM43.14 8.852h-3.662c-.73 0-1.323-.31-1.323-.688 0-.383.594-.692 1.323-.692h3.443c.237 0 .457-.07.65-.178a8.514 8.514 0 00-.43 1.558zm22.077 3.897l.023-.967a1.294 1.294 0 00-1.3-1.325h-6.65c-.728 0-1.312.587-1.3 1.325l.053 2.991c-.059 1.482-.548 2.044-.852 2.051-.304.007-.687-.67-.9-1.058-.796-1.434-.407-4.961-.407-6.118 0-1.158 1.015-1.158 1.814-1.301.796-.148 7.372-.027 7.372-.027.73.012 1.329-.572 1.329-1.297V1.551A1.46 1.46 0 0063.08.12s-4.271-.332-7.815.106c-3.553.433-6.383.573-9.28 3.55-.758.778-1.319 1.489-1.741 2.175V1.55c0-.734-.592-1.324-1.323-1.324H27.886c-.733 0-1.327.59-1.327 1.324v21.058c0 .722.594 1.317 1.327 1.317h6.325a8.42 8.42 0 01-1.337-.25c-3.767-1.053-6.12-4.042-6.153-7.807-.027-3.54 2.137-6.666 5.259-7.595 5.057-1.5 8.391 1.266 9.437 2.943l.919 1.461-7.93 5.894-2.224-2.997 4.725-3.521c-.847-.438-2.115-.713-3.867-.204-1.791.532-2.595 2.444-2.58 3.991.005.773.268 3.358 3.42 4.239 1.32.37 2.522.167 3.579-.601 1.128-.82 1.764-2.11 1.792-2.712l.17.005c-.52-.122-.9-.457-.9-.856 0-.493.59-.904 1.318-.904h3.3c.057 0 .112-.01.169-.018.182.632.42 1.283.698 1.931a1.314 1.314 0 00-.508-.1h-2.787l2.264.088c-.073 1.948-1.412 4.197-3.32 5.584a7.701 7.701 0 01-3.661 1.429h7.504c.732 0 1.328-.595 1.328-1.317v-4.026c1.126 1.996 2.637 3.709 4.28 4.253 3.48 1.161 4.707 1.09 5.943 1.09.908 0 5.15-.032 7.319-.05-.18-.237-.237-.567-.128-.928l2.977-10.2zm17.285 5.17c-1.308 1.62-2.551 2.412-3.785 2.412-.434 0-1.848-.166-1.848-2.227 0-.33.03-.77.114-1.319 0 0 .013-.174.043-.399a15.637 15.637 0 01-1.911 1.998c-1.48 1.31-2.778 1.947-3.966 1.947-1.035 0-2.783-.528-2.783-4.041 0-3.169 1.05-5.955 3.125-8.275 2.098-2.347 4.626-3.538 7.525-3.538 1.096 0 2.057.14 2.858.427l.672.248-.188.689s-.08.309-.077.285c0 0-.176.788-.176.778 0 0-.18.87-.18.892l-.932 6.51-.133.94c-.093.706-.136 1.126-.166 1.408.32-.268.78-.825 1.373-2.093l.37-.783.736.445c.506.305.768.683.768 1.136 0 .409-.176 1.004-1.44 2.56zm7.327 4.812L83.613 1.439C83.409.74 82.649.173 81.925.173H70.768c-.725 0-1.487.568-1.688 1.266L62.862 22.73c-.21.698.218 1.27.95 1.27h7.39c.73 0 1.44-.399 1.585-.88.135-.485.847-.882 1.573-.882h3.967c.725 0 1.441.397 1.575.882.147.481.857.88 1.583.88h7.397c.728 0 1.15-.572.947-1.27z" fill="#fff"></path> <path d="M73.63 9.615c-.861 1.556-1.302 3.518-1.302 5.848 0 .338.04 1.136.354 1.136.36 0 1.177-.227 2.58-1.747a10.855 10.855 0 002.826-5.898s.078-.56.148-1.03c-.619-.273-1.236-.416-1.845-.416-1.079 0-1.982.69-2.761 2.107z" fill="#fff"></path> </svg>